<?xml version="1.0"?>
<svg xmlns="http://www.w3.org/2000/svg" xmlns:xlink="http://www.w3.org/1999/xlink" version="1.1" id="Capa_1" x="0px" y="0px" viewBox="0 0 512 512" style="enable-background:new 0 0 512 512;" xml:space="preserve" width="512px" height="512px" class=""><g><g>
	<g>
		<path d="M469.333,0H256C114.833,0,0,114.844,0,256s114.833,256,256,256s256-114.844,256-256V42.667    C512,19.135,492.854,0,469.333,0z M384,330.667c0,3.938-2.167,7.552-5.625,9.406c-1.583,0.844-3.313,1.26-5.042,1.26    c-2.063,0-4.125-0.604-5.917-1.792L320,307.927v1.406c0,17.646-14.354,32-32,32H160c-31.104,0-32-76.604-32-85.333    s0.896-85.333,32-85.333h128c17.646,0,32,14.354,32,32v1.406l47.417-31.615c3.292-2.177,7.479-2.385,10.958-0.531    c3.458,1.854,5.625,5.469,5.625,9.406V330.667z" data-original="#000000" class="active-path" data-old_color="#000000" fill="#1976DE"/>
	</g>
</g></g> </svg>
