<?xml version="1.0" encoding="iso-8859-1"?>
<!-- Generator: Adobe Illustrator 19.0.0, SVG Export Plug-In . SVG Version: 6.00 Build 0)  -->
<svg version="1.1" id="Capa_1" xmlns="http://www.w3.org/2000/svg" xmlns:xlink="http://www.w3.org/1999/xlink" x="0px" y="0px"
	 viewBox="0 0 512 512" style="enable-background:new 0 0 512 512;" xml:space="preserve">
<polygon style="fill:#564D80;" points="384.005,127.995 384.005,286 332.865,256 278.485,233.515 309.005,127.995 "/>
<polygon style="fill:#015E82;" points="384.005,384.005 226,384.005 256,332.865 278.485,278.485 384.005,309.005 "/>
<polygon style="fill:#009AD2;" points="512,256 332.865,256 278.485,278.485 384.005,384.005 "/>
<polygon style="fill:#1EA08A;" points="127.995,384.005 127.995,226 179.135,256 233.515,278.485 202.995,384.005 "/>
<polygon style="fill:#88D652;" points="256,512 256,332.865 233.515,278.485 127.995,384.005 "/>
<polygon style="fill:#FF9037;" points="127.995,127.995 286,127.995 256,179.135 233.515,233.515 127.995,202.995 "/>
<polygon style="fill:#FFD237;" points="0,256 179.135,256 233.515,233.515 127.995,127.995 "/>
<polygon style="fill:#FF0021;" points="256,0 256,179.135 278.485,233.515 384.005,127.995 "/>
<g>
</g>
<g>
</g>
<g>
</g>
<g>
</g>
<g>
</g>
<g>
</g>
<g>
</g>
<g>
</g>
<g>
</g>
<g>
</g>
<g>
</g>
<g>
</g>
<g>
</g>
<g>
</g>
<g>
</g>
</svg>
