<?xml version="1.0"?>
<svg xmlns="http://www.w3.org/2000/svg" xmlns:xlink="http://www.w3.org/1999/xlink" version="1.1" id="Layer_1" x="0px" y="0px" viewBox="0 0 512 512" style="enable-background:new 0 0 512 512;" xml:space="preserve" width="512px" height="512px" class=""><g><circle style="fill:#13B3F6" cx="256" cy="256" r="256" data-original="#005C83" class="" data-old_color="#005C83"/><path style="fill:#0E5483" d="M457.465,413.965C491.627,370.457,512,315.608,512,256c0-42.487-10.362-82.55-28.679-117.819  L441,95.86L276,232.5L457.465,413.965z" data-original="#00263F" class="" data-old_color="#00263F"/><rect x="120.5" y="134.09" style="fill:#FFFFFF;" width="271" height="211.37" data-original="#FFFFFF" class=""/><rect x="255.67" y="134.09" style="fill:#E0E0E0;" width="135.83" height="211.37" data-original="#E0E0E0" class=""/><rect x="76" y="134.09" style="fill:#F1333F;" width="95" height="211.37" data-original="#F1333F"/><g>
	<rect x="101" y="134.09" style="fill:#AE283F;" width="45" height="211.37" data-original="#AE283F" class=""/>
	<rect x="346" y="134.09" style="fill:#AE283F;" width="95" height="211.37" data-original="#AE283F" class=""/>
</g><rect x="371" y="134.09" style="fill:#82142C;" width="45" height="211.37" data-original="#82142C" class=""/><rect x="76" y="95.86" style="fill:#FF9451;" width="365" height="43.637" data-original="#FF9451"/><rect x="255.67" y="95.86" style="fill:#F7674F;" width="185.33" height="43.637" data-original="#F7674F" class=""/><path style="fill:#635C5C" d="M12.117,334C45.109,437.238,141.817,512,256,512s210.891-74.762,243.883-178H12.117z" data-original="#333333" class="" data-old_color="#333333"/><path style="fill:#353535" d="M255.667,334v177.997c0.111,0,0.222,0.003,0.333,0.003c114.183,0,210.891-74.762,243.883-178H255.667  z" data-original="#1A1A1A" class="active-path" data-old_color="#1A1A1A"/><g>
	<path style="fill:#00BAFF;" d="M140.327,381.86H67.57c-11.361,0-20.57,9.209-20.57,20.57v1.433   c28.315,39.95,67.798,71.418,113.897,89.876V402.43C160.897,391.069,151.688,381.86,140.327,381.86z" data-original="#00BAFF" class=""/>
	<path style="fill:#00BAFF;" d="M312.949,493.748H199.051V402.43c0-11.361,9.21-20.57,20.57-20.57h72.757   c11.361,0,20.57,9.21,20.57,20.57v91.318H312.949z" data-original="#00BAFF" class=""/>
</g><g>
	<path style="fill:#008CC3;" d="M312.948,402.43c0-11.36-9.209-20.57-20.57-20.57h-36.712v111.888h57.282V402.43z" data-original="#008CC3" class=""/>
	<path style="fill:#008CC3;" d="M459.897,402.43c0-11.36-9.209-20.57-20.57-20.57H366.57c-11.361,0-20.57,9.209-20.57,20.57v91.318   h5.082c43.406-17.375,80.938-46.292,108.815-82.955V402.43z" data-original="#008CC3" class=""/>
</g><path style="fill:#0074A3;" d="M366.18,419.86h-72.757c-11.36,0-20.57,9.209-20.57,20.57v71.004  c41.427-2.693,80.164-15.235,113.897-35.316V440.43C386.75,429.069,377.541,419.86,366.18,419.86z" data-original="#0074A3" class=""/><path style="fill:#008CC3;" d="M218.577,419.86H145.82c-11.361,0-20.57,9.209-20.57,20.57v35.688  c33.733,20.081,72.47,32.623,113.897,35.316V440.43C239.147,429.069,229.938,419.86,218.577,419.86z" data-original="#008CC3" class=""/></g> </svg>
